<?xml version="1.0" standalone="no"?>
<svg xmlns="http://www.w3.org/2000/svg" style="fill:#ffffff;stroke:#ffffff" viewBox="0 0 140 140"
    preserveAspectRatio="xMinYMin meet">
    <svg xmlns="http://www.w3.org/2000/svg" viewBox="0 0 100 100" fill="currentColor"
        stroke-linejoin="round" stroke-linecap="round" stroke-width="2"
        preserveAspectRatio="xMinYMin meet" fill-rule="evenodd" clip-rule="evenodd" x="20" y="20"
        width="100" height="100" style="fill:#ffffff;stroke:#ffffff">
        <path
            d="M 11 16 C 11 6 10 5.6 17 3 C 24 0.4 40.2 1.4 46 3 C 51.8 4.6 51.8 1 46 11 C 40.2 21 24 52 17 53 C 10 54 11 26 11 16 Z" />
        <path
            d="M 72 13 C 76.6 10 95.2 29.8 99 36 C 102.8 42.2 93 39 91 44 C 89 49 90.2 58.6 89 61 C 87.8 63.4 86.8 58.2 85 56 C 83.2 53.8 81.8 51 80 50 C 78.2 49 77.6 58.4 76 51 C 74.4 43.6 67.4 16 72 13 Z" />
        <path d="M 48 46 C 48 46 46 61 46 61 C 46 61 48 46 48 46 Z" />
        <path
            d="M 28 68 C 19.4 63 13.8 66 26 67 C 38.2 68 75.4 71.4 89 73 C 102.6 74.6 98 71.2 94 75 C 90 78.8 82.2 93.4 69 92 C 55.8 90.6 36.6 73 28 68 Z" />
    </svg>
</svg>