<?xml version="1.0" standalone="no"?>
<svg xmlns="http://www.w3.org/2000/svg" style="fill:#000000;stroke:#000000" viewBox="0 0 140 140"
    preserveAspectRatio="xMinYMin meet">
    <svg xmlns="http://www.w3.org/2000/svg" viewBox="0 0 100 100" fill="currentColor"
        stroke-linejoin="round" stroke-linecap="round" stroke-width="2"
        preserveAspectRatio="xMinYMin meet" fill-rule="evenodd" clip-rule="evenodd" x="20" y="20"
        width="100" height="100" style="fill:#000000;stroke:#000000">
        <path d="M 4 7 C 6.6 5.8 17 13.8 17 17 C 17 20.2 6.6 25 4 23 C 1.4 21 1.4 8.2 4 7 Z" />
        <path
            d="M 82 8 C 82.2 7.2 92.6 10.4 95 12 C 97.4 13.6 96.6 16.8 94 16 C 91.4 15.2 81.8 8.8 82 8 Z" />
        <path
            d="M 41 53 C 43.2 50.2 45.6 42.8 52 44 C 58.4 45.2 76.4 55.6 73 59 C 69.6 62.4 41.4 61.2 35 61 C 28.6 60.8 39.8 59.6 41 58 C 42.2 56.4 38.8 55.8 41 53 Z" />
        <path
            d="M 9 69 C 2.4 63.8 10 69.4 23 70 C 36 70.6 59 70 74 72 C 89 74 96 77.8 98 80 C 100 82.2 90 82.8 84 83 C 78 83.2 68.8 80 68 81 C 67.2 82 82.4 85 80 88 C 77.6 91 70.2 99.8 56 96 C 41.8 92.2 15.6 74.2 9 69 Z" />
    </svg>
</svg>