<?xml version="1.0" standalone="no"?>
<svg xmlns="http://www.w3.org/2000/svg" style="fill:#000000;stroke:#000000" viewBox="0 0 140 140"
    preserveAspectRatio="xMinYMin meet">
    <svg xmlns="http://www.w3.org/2000/svg" viewBox="0 0 100 100" fill="currentColor"
        stroke-linejoin="round" stroke-linecap="round" stroke-width="2"
        preserveAspectRatio="xMinYMin meet" fill-rule="evenodd" clip-rule="evenodd" x="20" y="20"
        width="100" height="100" style="fill:#000000;stroke:#000000">
        <path
            d="M 0 25 C 4 22 25.8 10 31 14 C 36.2 18 30 42 26 45 C 22 48 16.2 33 11 29 C 5.8 25 -4 28 0 25 Z" />
        <path
            d="M 58 21 C 60.8 16.6 80.4 12.8 87 11 C 93.6 9.2 90.2 9.8 91 12 C 91.8 14.2 91 18.2 91 22 C 91 25.8 95.2 26.4 91 31 C 86.8 35.6 73.6 44.6 70 45 C 66.4 45.4 75.4 37.8 73 33 C 70.6 28.2 55.2 25.4 58 21 Z" />
        <path d="M 57 38 C 57 38 26 61 26 61 C 26 61 57 38 57 38 Z" />
        <path
            d="M 3 72 C 2.6 69 -12 69.4 7 69 C 26 68.6 87.4 68.6 98 70 C 108.6 71.4 62.6 74.4 60 76 C 57.4 77.6 95.2 76.4 85 78 C 74.8 79.6 25.4 85.2 9 84 C -7.4 82.8 3.4 75 3 72 Z" />
    </svg>
</svg>