<?xml version="1.0" standalone="no"?>
<svg xmlns="http://www.w3.org/2000/svg" style="fill:#ffffff;stroke:#ffffff" viewBox="0 0 140 140"
    preserveAspectRatio="xMinYMin meet">
    <svg xmlns="http://www.w3.org/2000/svg" viewBox="0 0 100 100" fill="currentColor"
        stroke-linejoin="round" stroke-linecap="round" stroke-width="2"
        preserveAspectRatio="xMinYMin meet" fill-rule="evenodd" clip-rule="evenodd" x="20" y="20"
        width="100" height="100" style="fill:#ffffff;stroke:#ffffff">
        <path
            d="M 33 2 C 37.2 -5.8 40.4 -2.6 37 6 C 33.6 14.6 16.8 45.8 16 45 C 15.2 44.2 28.8 9.8 33 2 Z" />
        <path
            d="M 57 4 C 57.8 -1.4 73.8 8.4 79 15 C 84.2 21.6 80.2 27.6 83 37 C 85.8 46.4 94.6 61 93 62 C 91.4 63 82.2 53.6 75 42 C 67.8 30.4 56.2 9.4 57 4 Z" />
        <path
            d="M 56 46 C 57.2 45 57.8 47.6 60 48 C 62.2 48.4 68.2 47 67 48 C 65.8 49 56.2 53.4 54 53 C 51.8 52.6 54.8 47 56 46 Z" />
        <path
            d="M 0 84 C 3.8 80 3.6 78 20 75 C 36.4 72 68.8 66.2 82 69 C 95.2 71.8 89.2 83.4 86 89 C 82.8 94.6 72.4 95.4 66 97 C 59.6 98.6 67 97.4 54 97 C 41 96.6 11.8 97.6 1 95 C -9.8 92.4 -3.8 88 0 84 Z" />
    </svg>
</svg>