<?xml version="1.0" standalone="no"?>
<svg xmlns="http://www.w3.org/2000/svg" style="fill:#ffffff;stroke:#ffffff" viewBox="0 0 140 140"
    preserveAspectRatio="xMinYMin meet">
    <svg xmlns="http://www.w3.org/2000/svg" viewBox="0 0 100 100" fill="currentColor"
        stroke-linejoin="round" stroke-linecap="round" stroke-width="2"
        preserveAspectRatio="xMinYMin meet" fill-rule="evenodd" clip-rule="evenodd" x="20" y="20"
        width="100" height="100" style="fill:#ffffff;stroke:#ffffff">
        <path
            d="M 26 43 C 26.6 43 9.8 43.8 5 44 C 0.2 44.2 -2.2 44.2 2 44 C 6.2 43.8 25.4 43 26 43 Z" />
        <path d="M 71 35 C 71 35 90 51 90 51 C 90 51 71 35 71 35 Z" />
        <path d="M 55 42 C 55 42 30 53 30 53 C 30 53 55 42 55 42 Z" />
        <path
            d="M 9 73 C 5 69.2 -1.6 70 1 70 C 3.6 70 10.2 72.6 22 73 C 33.8 73.4 52.6 71.6 60 72 C 67.4 72.4 52.8 73 59 75 C 65.2 77 83.6 79.4 91 82 C 98.4 84.6 98.2 86.2 96 88 C 93.8 89.8 81 88.8 80 91 C 79 93.2 97.2 99.2 91 99 C 84.8 98.8 63 91.6 49 90 C 35 88.4 26.6 91.2 21 91 C 15.4 90.8 23.4 92.6 21 89 C 18.6 85.4 13 76.8 9 73 Z" />
    </svg>
</svg>