<?xml version="1.0" standalone="no"?>
<svg xmlns="http://www.w3.org/2000/svg" style="fill:#ffffff;stroke:#ffffff" viewBox="0 0 140 140"
    preserveAspectRatio="xMinYMin meet">
    <svg xmlns="http://www.w3.org/2000/svg" viewBox="0 0 100 100" fill="currentColor"
        stroke-linejoin="round" stroke-linecap="round" stroke-width="2"
        preserveAspectRatio="xMinYMin meet" fill-rule="evenodd" clip-rule="evenodd" x="20" y="20"
        width="100" height="100" style="fill:#ffffff;stroke:#ffffff">
        <path d="M 8 8 C 9.2 12.2 7.6 45.8 6 50 C 4.4 54.2 -0.4 37.4 0 29 C 0.4 20.6 6.8 3.8 8 8 Z" />
        <path
            d="M 57 7 C 54.2 1.8 59.2 1.6 62 1 C 64.8 0.4 63.8 3.6 71 4 C 78.2 4.4 93 2.2 98 3 C 103 3.8 98.8 0.8 96 8 C 93.2 15.2 87 34.8 84 39 C 81 43.2 82.6 28.8 81 29 C 79.4 29.2 77 40.4 76 40 C 75 39.6 79.8 33.6 76 27 C 72.2 20.4 59.8 12.2 57 7 Z" />
        <path
            d="M 54 38 C 53.2 39.6 34.8 56.4 31 59 C 27.2 61.6 30.4 55.2 35 51 C 39.6 46.8 54.8 36.4 54 38 Z" />
        <path
            d="M 56 76 C 62.4 70.4 80.8 64.2 88 67 C 95.2 69.8 98.4 84.4 92 90 C 85.6 95.6 63.2 97.8 56 95 C 48.8 92.2 49.6 81.6 56 76 Z" />
    </svg>
</svg>