<?xml version="1.0" standalone="no"?>
<svg xmlns="http://www.w3.org/2000/svg" style="fill:#ffffff;stroke:#ffffff" viewBox="0 0 140 140"
    preserveAspectRatio="xMinYMin meet">
    <svg xmlns="http://www.w3.org/2000/svg" viewBox="0 0 100 100" fill="currentColor"
        stroke-linejoin="round" stroke-linecap="round" stroke-width="2"
        preserveAspectRatio="xMinYMin meet" fill-rule="evenodd" clip-rule="evenodd" x="20" y="20"
        width="100" height="100" style="fill:#ffffff;stroke:#ffffff">
        <path
            d="M 41 9 C 49.6 3.4 47 12.8 46 17 C 45 21.2 40.8 26.4 36 30 C 31.2 33.6 28.6 32 22 35 C 15.4 38 -0.8 50.2 3 45 C 6.8 39.8 32.4 14.6 41 9 Z" />
        <path
            d="M 72 31 C 69.2 20 63 9.2 67 8 C 71 6.8 85.8 18 92 25 C 98.2 32 100.2 35.4 98 43 C 95.8 50.6 86.2 65.4 81 63 C 75.8 60.6 74.8 42 72 31 Z" />
        <path
            d="M 47 39 C 54.4 36.4 67 43.8 65 48 C 63 52.2 44.4 57.4 37 60 C 29.6 62.6 26 65.2 28 61 C 30 56.8 39.6 41.6 47 39 Z" />
        <path
            d="M 6 76 C 1.8 73.2 -5.2 66.2 10 66 C 25.2 65.8 69.8 69.4 82 75 C 94.2 80.6 81.2 93 71 94 C 60.8 95 44 83.6 31 80 C 18 76.4 10.2 78.8 6 76 Z" />
    </svg>
</svg>