<?xml version="1.0" standalone="no"?>
<svg xmlns="http://www.w3.org/2000/svg" style="fill:#000000;stroke:#000000" viewBox="0 0 140 140"
    preserveAspectRatio="xMinYMin meet">
    <svg xmlns="http://www.w3.org/2000/svg" viewBox="0 0 100 100" fill="currentColor"
        stroke-linejoin="round" stroke-linecap="round" stroke-width="2"
        preserveAspectRatio="xMinYMin meet" fill-rule="evenodd" clip-rule="evenodd" x="20" y="20"
        width="100" height="100" style="fill:#000000;stroke:#000000">
        <path
            d="M 13 3 C 19 -0.6 41.6 -1 45 4 C 48.4 9 36 24.4 30 28 C 24 31.6 18.4 27 15 22 C 11.6 17 7 6.6 13 3 Z" />
        <path
            d="M 77 19 C 79.4 8.8 93 1.6 94 10 C 95 18.4 85.4 59.2 82 61 C 78.6 62.8 74.6 29.2 77 19 Z" />
        <path d="M 69 54 C 69 54 59 54 59 54 C 59 54 69 54 69 54 Z" />
        <path
            d="M 1 75 C -3.4 69.6 10.6 67.6 20 66 C 29.4 64.4 41.2 65 48 67 C 54.8 69 51.4 74.6 54 76 C 56.6 77.4 60.2 73.8 61 74 C 61.8 74.2 50.4 74.4 58 77 C 65.6 79.6 95 84.8 99 87 C 103 89.2 82.2 85.6 78 88 C 73.8 90.4 85.2 98 78 99 C 70.8 100 57.4 97.8 42 93 C 26.6 88.2 5.4 80.4 1 75 Z" />
    </svg>
</svg>