<svg width="296" height="269" viewBox="0 0 296 269" fill="none" xmlns="http://www.w3.org/2000/svg">
<rect x="0.5" y="0.5" width="295" height="268" rx="5.5" fill="white"/>
<rect x="0.5" y="0.5" width="295" height="268" rx="5.5" stroke="#E2E8F0"/>
<rect width="246" height="64" transform="translate(25 25)" fill="white"/>
<path d="M26.1186 40V29.8182H32.5021V31.1406H27.6548V34.2429H32.169V35.5604H27.6548V38.6776H32.5618V40H26.1186ZM35.9213 35.4659V40H34.4348V32.3636H35.8617V33.6065H35.9561C36.1318 33.2022 36.4069 32.8774 36.7814 32.6321C37.1593 32.3868 37.6349 32.2642 38.2083 32.2642C38.7286 32.2642 39.1844 32.3736 39.5755 32.5923C39.9666 32.8078 40.2698 33.1293 40.4853 33.5568C40.7007 33.9844 40.8084 34.513 40.8084 35.1428V40H39.3219V35.3217C39.3219 34.7682 39.1777 34.3357 38.8894 34.0241C38.601 33.7093 38.205 33.5518 37.7012 33.5518C37.3565 33.5518 37.0499 33.6264 36.7814 33.7756C36.5163 33.9247 36.3058 34.1435 36.15 34.4318C35.9976 34.7169 35.9213 35.0616 35.9213 35.4659ZM46.3667 32.3636V33.5568H42.1955V32.3636H46.3667ZM43.3141 30.5341H44.8006V37.7578C44.8006 38.0462 44.8437 38.2633 44.9299 38.4091C45.016 38.5516 45.1271 38.6494 45.263 38.7024C45.4022 38.7521 45.553 38.777 45.7154 38.777C45.8347 38.777 45.9391 38.7687 46.0286 38.7521C46.1181 38.7356 46.1877 38.7223 46.2374 38.7124L46.5059 39.9403C46.4197 39.9735 46.2971 40.0066 46.138 40.0398C45.9789 40.0762 45.78 40.0961 45.5414 40.0994C45.1503 40.1061 44.7857 40.0365 44.4476 39.8906C44.1096 39.7448 43.8361 39.5194 43.6273 39.2145C43.4185 38.9096 43.3141 38.5268 43.3141 38.0661V30.5341ZM51.2202 40.1541C50.4678 40.1541 49.8198 39.9934 49.2763 39.6719C48.736 39.3471 48.3184 38.8913 48.0234 38.3047C47.7318 37.7147 47.5859 37.0237 47.5859 36.2315C47.5859 35.4493 47.7318 34.7599 48.0234 34.1634C48.3184 33.5668 48.7294 33.1011 49.2564 32.7663C49.7867 32.4316 50.4065 32.2642 51.1158 32.2642C51.5466 32.2642 51.9643 32.3355 52.3686 32.478C52.773 32.6205 53.1359 32.8442 53.4574 33.1491C53.7789 33.4541 54.0324 33.8501 54.218 34.3374C54.4036 34.8213 54.4964 35.4096 54.4964 36.1023V36.6293H48.4261V35.5156H53.0398C53.0398 35.1245 52.9602 34.7782 52.8011 34.4766C52.642 34.1716 52.4183 33.9313 52.13 33.7557C51.8449 33.58 51.5102 33.4922 51.1257 33.4922C50.7081 33.4922 50.3435 33.5949 50.032 33.8004C49.7237 34.0026 49.4851 34.2678 49.3161 34.5959C49.1503 34.9207 49.0675 35.2737 49.0675 35.6548V36.5249C49.0675 37.0353 49.157 37.4695 49.3359 37.8274C49.5182 38.1854 49.7718 38.4588 50.0966 38.6477C50.4214 38.8333 50.8009 38.9261 51.2351 38.9261C51.5168 38.9261 51.7737 38.8864 52.0057 38.8068C52.2377 38.724 52.4382 38.6013 52.6072 38.4389C52.7763 38.2765 52.9055 38.076 52.995 37.8374L54.402 38.0909C54.2893 38.5052 54.0871 38.8681 53.7955 39.1797C53.5071 39.4879 53.1442 39.7282 52.7067 39.9006C52.2725 40.0696 51.777 40.1541 51.2202 40.1541ZM56.1458 40V32.3636H57.5826V33.5767H57.6621C57.8013 33.1657 58.0466 32.8426 58.3979 32.6072C58.7525 32.3686 59.1536 32.2493 59.601 32.2493C59.6938 32.2493 59.8032 32.2526 59.9292 32.2592C60.0584 32.2659 60.1595 32.2741 60.2324 32.2841V33.706C60.1728 33.6894 60.0667 33.6712 59.9142 33.6513C59.7618 33.6281 59.6093 33.6165 59.4569 33.6165C59.1055 33.6165 58.7923 33.6911 58.5172 33.8402C58.2454 33.986 58.03 34.1899 57.8709 34.4517C57.7118 34.7102 57.6323 35.0052 57.6323 35.3366V40H56.1458ZM66.8794 29.8182V40H65.3432V29.8182H66.8794ZM69.1167 40V29.8182H72.8453C73.5679 29.8182 74.1661 29.9375 74.6401 30.1761C75.1141 30.4115 75.4687 30.7313 75.704 31.1357C75.9393 31.5367 76.057 31.9891 76.057 32.4929C76.057 32.9171 75.9791 33.2751 75.8233 33.5668C75.6676 33.8551 75.4587 34.0871 75.1969 34.2628C74.9384 34.4351 74.6533 34.5611 74.3418 34.6406V34.7401C74.6799 34.7566 75.0096 34.866 75.3311 35.0682C75.656 35.267 75.9244 35.5504 76.1365 35.9183C76.3487 36.2862 76.4547 36.7337 76.4547 37.2607C76.4547 37.781 76.3321 38.2483 76.0868 38.6626C75.8449 39.0736 75.4703 39.4001 74.9632 39.642C74.4561 39.8807 73.8082 40 73.0194 40H69.1167ZM70.6529 38.6825H72.8702C73.606 38.6825 74.133 38.54 74.4512 38.255C74.7694 37.9699 74.9284 37.6136 74.9284 37.1861C74.9284 36.8646 74.8472 36.5696 74.6848 36.3011C74.5224 36.0327 74.2904 35.8189 73.9888 35.6598C73.6905 35.5007 73.3359 35.4212 72.9249 35.4212H70.6529V38.6825ZM70.6529 34.223H72.7111C73.0558 34.223 73.3657 34.1567 73.6408 34.0241C73.9192 33.8916 74.1396 33.706 74.302 33.4673C74.4677 33.2254 74.5506 32.9403 74.5506 32.6122C74.5506 32.1913 74.4031 31.8383 74.1081 31.5533C73.8132 31.2682 73.3607 31.1257 72.7509 31.1257H70.6529V34.223ZM79.1369 40H77.5062L81.1703 29.8182H82.9451L86.6092 40H84.9785L82.1 31.6676H82.0204L79.1369 40ZM79.4103 36.0128H84.7001V37.3054H79.4103V36.0128ZM96.2976 29.8182V40H94.8857L89.7102 32.5327H89.6158V40H88.0795V29.8182H89.5014L94.6818 37.2955H94.7763V29.8182H96.2976Z" fill="#0F172A"/>
<rect x="24.5" y="50.5" width="247" height="39" rx="8.5" fill="white"/>
<rect x="24.5" y="50.5" width="247" height="39" rx="8.5" stroke="black"/>
<rect x="24.5" y="50.5" width="247" height="39" rx="6.5" fill="white"/>
<rect x="24.5" y="50.5" width="247" height="39" rx="6.5" stroke="#CBD5E1"/>
<path d="M46.3068 64.8182V75H45.1136L39.5653 67.0057H39.4659V75H38.233V64.8182H39.4261L44.9943 72.8324H45.0938V64.8182H46.3068ZM48.774 75V64.8182H50.0069V73.9062H54.7399V75H48.774ZM59.7115 64.679C60.1291 64.6823 60.5467 64.7618 60.9643 64.9176C61.3819 65.0734 61.7631 65.3319 62.1078 65.6932C62.4525 66.0511 62.7292 66.54 62.938 67.1598C63.1468 67.7796 63.2512 68.5568 63.2512 69.4915C63.2512 70.3963 63.1651 71.2 62.9927 71.9027C62.8237 72.602 62.5784 73.192 62.2569 73.6726C61.9387 74.1532 61.551 74.5178 61.0936 74.7663C60.6395 75.0149 60.1258 75.1392 59.5524 75.1392C58.9823 75.1392 58.4735 75.0265 58.0261 74.8011C57.582 74.5724 57.2174 74.2559 56.9324 73.8516C56.6506 73.4439 56.47 72.9716 56.3904 72.4347H57.6035C57.7129 72.902 57.93 73.2881 58.2548 73.593C58.5829 73.8946 59.0154 74.0455 59.5524 74.0455C60.3379 74.0455 60.9577 73.7024 61.4118 73.0163C61.8691 72.3303 62.0978 71.3608 62.0978 70.108H62.0183C61.8327 70.3864 61.6123 70.6267 61.3571 70.8288C61.1019 71.031 60.8185 71.1868 60.5069 71.2962C60.1954 71.4055 59.8639 71.4602 59.5126 71.4602C58.9293 71.4602 58.394 71.3161 57.9068 71.0277C57.4229 70.736 57.0351 70.3366 56.7434 69.8295C56.4551 69.3191 56.3109 68.7358 56.3109 68.0795C56.3109 67.4564 56.4501 66.8864 56.7285 66.3693C57.0102 65.849 57.4047 65.4347 57.9118 65.1264C58.4222 64.8182 59.0221 64.669 59.7115 64.679ZM59.7115 65.7727C59.2939 65.7727 58.9177 65.8771 58.5829 66.0859C58.2515 66.2914 57.988 66.5698 57.7924 66.9212C57.6002 67.2692 57.5041 67.6553 57.5041 68.0795C57.5041 68.5038 57.5969 68.8899 57.7825 69.2379C57.9714 69.5826 58.2283 69.8577 58.5531 70.0632C58.8812 70.2654 59.2541 70.3665 59.6717 70.3665C59.9866 70.3665 60.2799 70.3052 60.5517 70.1825C60.8234 70.0566 61.0604 69.8859 61.2626 69.6705C61.4681 69.4517 61.6288 69.2048 61.7449 68.9297C61.8609 68.6513 61.9189 68.3613 61.9189 68.0597C61.9189 67.6619 61.8227 67.2891 61.6305 66.9411C61.4416 66.593 61.1797 66.3113 60.845 66.0959C60.5136 65.8804 60.1357 65.7727 59.7115 65.7727ZM68.7859 64.8182V75H67.5529V66.1108H67.4933L65.0075 67.7614V66.5085L67.5529 64.8182H68.7859ZM76.2482 75H74.9556L78.6942 64.8182H79.967L83.7056 75H82.413L79.3704 66.429H79.2908L76.2482 75ZM76.7255 71.0227H81.9357V72.1165H76.7255V71.0227ZM85.2915 75V64.8182H88.8512C89.5605 64.8182 90.1455 64.9408 90.6062 65.1861C91.0669 65.428 91.4099 65.7545 91.6353 66.1655C91.8607 66.5732 91.9734 67.0256 91.9734 67.5227C91.9734 67.9602 91.8955 68.3215 91.7397 68.6065C91.5872 68.8916 91.3851 69.117 91.1332 69.2827C90.8846 69.4484 90.6145 69.571 90.3228 69.6506V69.75C90.6344 69.7699 90.9476 69.8793 91.2624 70.0781C91.5773 70.277 91.8408 70.562 92.0529 70.9332C92.265 71.3045 92.3711 71.7585 92.3711 72.2955C92.3711 72.8059 92.2551 73.2649 92.0231 73.6726C91.7911 74.0803 91.4248 74.4034 90.9244 74.642C90.4239 74.8807 89.7726 75 88.9705 75H85.2915ZM86.5245 73.9062H88.9705C89.7759 73.9062 90.3477 73.7505 90.6857 73.4389C91.0271 73.1241 91.1978 72.7429 91.1978 72.2955C91.1978 71.9508 91.11 71.6326 90.9343 71.3409C90.7586 71.0459 90.5084 70.8106 90.1836 70.6349C89.8588 70.456 89.4743 70.3665 89.0302 70.3665H86.5245V73.9062ZM86.5245 69.2926H88.8114C89.1826 69.2926 89.5174 69.2197 89.8157 69.0739C90.1173 68.928 90.3559 68.7225 90.5316 68.4574C90.7106 68.1922 90.8001 67.8807 90.8001 67.5227C90.8001 67.0753 90.6443 66.6958 90.3327 66.3842C90.0212 66.0694 89.5273 65.9119 88.8512 65.9119H86.5245V69.2926ZM102.471 64.8182V75H101.278L95.7294 67.0057H95.63V75H94.397V64.8182H95.5902L101.158 72.8324H101.258V64.8182H102.471ZM105.356 75H104.063L107.802 64.8182H109.074L112.813 75H111.52L108.478 66.429H108.398L105.356 75ZM105.833 71.0227H111.043V72.1165H105.833V71.0227ZM121.479 75.1392C120.729 75.1392 120.091 74.9354 119.564 74.5277C119.037 74.1167 118.635 73.5218 118.356 72.7429C118.078 71.9607 117.939 71.0161 117.939 69.9091C117.939 68.8087 118.078 67.8691 118.356 67.0902C118.638 66.308 119.042 65.7114 119.569 65.3004C120.1 64.8861 120.736 64.679 121.479 64.679C122.221 64.679 122.856 64.8861 123.383 65.3004C123.913 65.7114 124.317 66.308 124.596 67.0902C124.877 67.8691 125.018 68.8087 125.018 69.9091C125.018 71.0161 124.879 71.9607 124.601 72.7429C124.322 73.5218 123.92 74.1167 123.393 74.5277C122.866 74.9354 122.228 75.1392 121.479 75.1392ZM121.479 74.0455C122.221 74.0455 122.798 73.6875 123.209 72.9716C123.62 72.2557 123.825 71.2348 123.825 69.9091C123.825 69.0275 123.731 68.2768 123.542 67.657C123.356 67.0372 123.088 66.5649 122.736 66.2401C122.388 65.9152 121.969 65.7528 121.479 65.7528C120.743 65.7528 120.168 66.1158 119.753 66.8416C119.339 67.5642 119.132 68.5866 119.132 69.9091C119.132 70.7907 119.225 71.5398 119.41 72.1562C119.596 72.7727 119.863 73.2417 120.211 73.5632C120.562 73.8847 120.985 74.0455 121.479 74.0455ZM126.669 72.9119V71.8977L131.143 64.8182H131.879V66.3892H131.382L128.001 71.7386V71.8182H134.027V72.9119H126.669ZM131.461 75V72.6037V72.1314V64.8182H132.635V75H131.461ZM139.333 64.8182V75H138.1V66.1108H138.04L135.554 67.7614V66.5085L138.1 64.8182H139.333ZM142.579 75L147.133 65.9915V65.9119H141.883V64.8182H148.406V65.9716L143.872 75H142.579ZM157.776 64.8182V75H156.543V66.1108H156.483L153.998 67.7614V66.5085L156.543 64.8182H157.776ZM164.085 75.1392C163.667 75.1326 163.25 75.053 162.832 74.9006C162.415 74.7481 162.033 74.4912 161.689 74.13C161.344 73.7654 161.067 73.2732 160.858 72.6534C160.65 72.0303 160.545 71.2481 160.545 70.3068C160.545 69.4053 160.63 68.6065 160.799 67.9105C160.968 67.2112 161.213 66.6229 161.535 66.1456C161.856 65.665 162.244 65.3004 162.698 65.0518C163.155 64.8033 163.671 64.679 164.244 64.679C164.814 64.679 165.321 64.7933 165.765 65.022C166.213 65.2474 166.577 65.5623 166.859 65.9666C167.141 66.371 167.323 66.8366 167.406 67.3636H166.193C166.08 66.9062 165.862 66.5268 165.537 66.2251C165.212 65.9235 164.781 65.7727 164.244 65.7727C163.455 65.7727 162.834 66.1158 162.38 66.8018C161.929 67.4879 161.702 68.4508 161.699 69.6903H161.778C161.964 69.4086 162.184 69.1683 162.439 68.9695C162.698 68.7673 162.983 68.6115 163.295 68.5021C163.606 68.3928 163.936 68.3381 164.284 68.3381C164.867 68.3381 165.401 68.4839 165.885 68.7756C166.369 69.0639 166.756 69.4633 167.048 69.9737C167.34 70.4808 167.486 71.0625 167.486 71.7188C167.486 72.3485 167.345 72.9252 167.063 73.4489C166.781 73.9692 166.385 74.3835 165.875 74.6918C165.368 74.9967 164.771 75.1458 164.085 75.1392ZM164.085 74.0455C164.503 74.0455 164.877 73.9411 165.209 73.7322C165.543 73.5234 165.807 73.2434 165.999 72.892C166.195 72.5407 166.292 72.1496 166.292 71.7188C166.292 71.2978 166.198 70.915 166.009 70.5703C165.823 70.2223 165.567 69.9455 165.238 69.7401C164.914 69.5346 164.542 69.4318 164.125 69.4318C163.81 69.4318 163.517 69.4948 163.245 69.6207C162.973 69.7434 162.734 69.9124 162.529 70.1278C162.327 70.3433 162.168 70.5902 162.052 70.8686C161.936 71.1437 161.878 71.4337 161.878 71.7386C161.878 72.143 161.972 72.5208 162.161 72.8722C162.353 73.2235 162.615 73.5069 162.947 73.7223C163.281 73.9377 163.661 74.0455 164.085 74.0455ZM169.202 72.9119V71.8977L173.676 64.8182H174.412V66.3892H173.915L170.534 71.7386V71.8182H176.56V72.9119H169.202ZM173.995 75V72.6037V72.1314V64.8182H175.168V75H173.995ZM181.863 75.1392C181.207 75.1392 180.622 75.0265 180.108 74.8011C179.598 74.5758 179.192 74.2625 178.89 73.8615C178.592 73.4571 178.43 72.9882 178.403 72.4545H179.656C179.683 72.7827 179.795 73.0661 179.994 73.3047C180.193 73.54 180.453 73.7223 180.775 73.8516C181.096 73.9808 181.452 74.0455 181.844 74.0455C182.281 74.0455 182.669 73.9692 183.007 73.8168C183.345 73.6643 183.61 73.4522 183.802 73.1804C183.995 72.9086 184.091 72.5938 184.091 72.2358C184.091 71.8613 183.998 71.5315 183.812 71.2464C183.627 70.9581 183.355 70.7327 182.997 70.5703C182.639 70.4079 182.202 70.3267 181.684 70.3267H180.869V69.233H181.684C182.089 69.233 182.443 69.16 182.748 69.0142C183.057 68.8684 183.297 68.6629 183.469 68.3977C183.645 68.1326 183.733 67.821 183.733 67.4631C183.733 67.1184 183.657 66.8184 183.504 66.5632C183.352 66.308 183.136 66.1091 182.858 65.9666C182.583 65.8241 182.258 65.7528 181.883 65.7528C181.532 65.7528 181.201 65.8175 180.889 65.9467C180.581 66.0727 180.329 66.2566 180.133 66.4986C179.938 66.7372 179.832 67.0256 179.815 67.3636H178.622C178.642 66.83 178.803 66.3627 179.104 65.9616C179.406 65.5573 179.8 65.2424 180.287 65.017C180.778 64.7917 181.317 64.679 181.903 64.679C182.533 64.679 183.073 64.8066 183.524 65.0618C183.975 65.3137 184.321 65.6468 184.563 66.0611C184.805 66.4754 184.926 66.9228 184.926 67.4034C184.926 67.9768 184.775 68.4657 184.474 68.87C184.175 69.2744 183.769 69.5545 183.256 69.7102V69.7898C183.898 69.8958 184.401 70.1693 184.762 70.6101C185.123 71.0476 185.304 71.5895 185.304 72.2358C185.304 72.7893 185.153 73.2865 184.851 73.7273C184.553 74.1648 184.145 74.5095 183.628 74.7614C183.111 75.0133 182.523 75.1392 181.863 75.1392ZM194.596 75.1392C193.847 75.1392 193.209 74.9354 192.682 74.5277C192.155 74.1167 191.752 73.5218 191.474 72.7429C191.195 71.9607 191.056 71.0161 191.056 69.9091C191.056 68.8087 191.195 67.8691 191.474 67.0902C191.755 66.308 192.16 65.7114 192.687 65.3004C193.217 64.8861 193.853 64.679 194.596 64.679C195.338 64.679 195.973 64.8861 196.5 65.3004C197.03 65.7114 197.434 66.308 197.713 67.0902C197.995 67.8691 198.135 68.8087 198.135 69.9091C198.135 71.0161 197.996 71.9607 197.718 72.7429C197.439 73.5218 197.037 74.1167 196.51 74.5277C195.983 74.9354 195.345 75.1392 194.596 75.1392ZM194.596 74.0455C195.338 74.0455 195.915 73.6875 196.326 72.9716C196.737 72.2557 196.942 71.2348 196.942 69.9091C196.942 69.0275 196.848 68.2768 196.659 67.657C196.473 67.0372 196.205 66.5649 195.854 66.2401C195.506 65.9152 195.086 65.7528 194.596 65.7528C193.86 65.7528 193.285 66.1158 192.871 66.8416C192.456 67.5642 192.249 68.5866 192.249 69.9091C192.249 70.7907 192.342 71.5398 192.528 72.1562C192.713 72.7727 192.98 73.2417 193.328 73.5632C193.679 73.8847 194.102 74.0455 194.596 74.0455ZM203.346 75.1392C202.597 75.1392 201.959 74.9354 201.432 74.5277C200.905 74.1167 200.502 73.5218 200.224 72.7429C199.945 71.9607 199.806 71.0161 199.806 69.9091C199.806 68.8087 199.945 67.8691 200.224 67.0902C200.505 66.308 200.91 65.7114 201.437 65.3004C201.967 64.8861 202.603 64.679 203.346 64.679C204.088 64.679 204.723 64.8861 205.25 65.3004C205.78 65.7114 206.184 66.308 206.463 67.0902C206.745 67.8691 206.885 68.8087 206.885 69.9091C206.885 71.0161 206.746 71.9607 206.468 72.7429C206.189 73.5218 205.787 74.1167 205.26 74.5277C204.733 74.9354 204.095 75.1392 203.346 75.1392ZM203.346 74.0455C204.088 74.0455 204.665 73.6875 205.076 72.9716C205.487 72.2557 205.692 71.2348 205.692 69.9091C205.692 69.0275 205.598 68.2768 205.409 67.657C205.223 67.0372 204.955 66.5649 204.604 66.2401C204.256 65.9152 203.836 65.7528 203.346 65.7528C202.61 65.7528 202.035 66.1158 201.621 66.8416C201.206 67.5642 200.999 68.5866 200.999 69.9091C200.999 70.7907 201.092 71.5398 201.278 72.1562C201.463 72.7727 201.73 73.2417 202.078 73.5632C202.429 73.8847 202.852 74.0455 203.346 74.0455Z" fill="black"/>
<path fill-rule="evenodd" clip-rule="evenodd" d="M242.025 68.0932C242.788 67.2881 245.161 66.2712 246.263 65.339C247.364 64.4068 247.407 62.5 247.534 63.4322C247.661 64.3644 247.407 68.8136 246.898 70C246.39 71.1864 245.627 68.8983 244.992 69.3644C244.356 69.8305 244.229 72.3305 243.72 72.3305C243.212 72.3305 242.788 70.2119 242.449 69.3644C242.11 68.5169 241.263 68.8983 242.025 68.0932Z" fill="black" stroke="black" stroke-width="0.571429" stroke-linecap="round" stroke-linejoin="round"/>
<path fill-rule="evenodd" clip-rule="evenodd" d="M255.373 67.2458C256.093 65.8475 260.627 66.7797 261.941 67.0339C263.254 67.2881 262.661 67.1186 261.941 68.5169C261.22 69.9152 259.653 74.2797 258.339 74.0254C257.025 73.7712 254.653 68.6441 255.373 67.2458Z" fill="black" stroke="black" stroke-width="0.571429" stroke-linecap="round" stroke-linejoin="round"/>
<path fill-rule="evenodd" clip-rule="evenodd" d="M251.983 72.1186C252.788 71.9915 254.483 71.9915 254.102 72.1186C253.72 72.2458 250.5 72.7542 250.076 72.7542C249.653 72.7542 251.178 72.2458 251.983 72.1186Z" fill="black" stroke="black" stroke-width="0.571429" stroke-linecap="round" stroke-linejoin="round"/>
<path fill-rule="evenodd" clip-rule="evenodd" d="M256.856 75.9322C261.008 75.5509 262.915 77.5847 262.364 78.2627C261.814 78.9407 256.305 79.1949 254.102 79.322C251.898 79.4492 253.847 78.7288 251.347 78.8983C248.847 79.0678 240.5 80.7627 241.602 80.1695C242.703 79.5763 252.703 76.3136 256.856 75.9322Z" fill="black" stroke="black" stroke-width="0.571429" stroke-linecap="round" stroke-linejoin="round"/>
<path d="M238 57.5V82.5H258.975V57.5L254.737 61.5254H242.025L238 57.5Z" stroke="black" stroke-width="1.14286" stroke-linecap="round" stroke-linejoin="round"/>
<rect width="246" height="64" transform="translate(25 112)" fill="white"/>
<path d="M34.3366 116.818V127H32.9247L27.7493 119.533H27.6548V127H26.1186V116.818H27.5405L32.7209 124.295H32.8153V116.818H34.3366ZM38.6806 127.169C38.1967 127.169 37.7592 127.08 37.3681 126.901C36.977 126.718 36.6671 126.455 36.4384 126.11C36.213 125.765 36.1003 125.343 36.1003 124.842C36.1003 124.411 36.1832 124.057 36.3489 123.778C36.5146 123.5 36.7383 123.28 37.0201 123.117C37.3018 122.955 37.6167 122.832 37.9647 122.749C38.3127 122.666 38.6673 122.603 39.0286 122.56C39.486 122.507 39.8572 122.464 40.1422 122.431C40.4273 122.395 40.6344 122.337 40.7637 122.257C40.8929 122.178 40.9576 122.048 40.9576 121.869V121.835C40.9576 121.4 40.8349 121.064 40.5897 120.825C40.3477 120.587 39.9864 120.467 39.5059 120.467C39.0054 120.467 38.611 120.578 38.3226 120.8C38.0376 121.019 37.8404 121.263 37.731 121.531L36.334 121.213C36.4997 120.749 36.7417 120.375 37.0598 120.089C37.3813 119.801 37.7509 119.592 38.1685 119.463C38.5861 119.33 39.0253 119.264 39.486 119.264C39.7909 119.264 40.1141 119.301 40.4554 119.374C40.8001 119.443 41.1216 119.572 41.4199 119.761C41.7215 119.95 41.9685 120.22 42.1607 120.572C42.3529 120.92 42.449 121.372 42.449 121.929V127H40.9973V125.956H40.9377C40.8416 126.148 40.6974 126.337 40.5051 126.523C40.3129 126.708 40.066 126.862 39.7644 126.985C39.4628 127.108 39.1015 127.169 38.6806 127.169ZM39.0037 125.976C39.4147 125.976 39.766 125.895 40.0577 125.732C40.3527 125.57 40.5764 125.358 40.7289 125.096C40.8846 124.831 40.9625 124.547 40.9625 124.246V123.261C40.9095 123.314 40.8068 123.364 40.6543 123.411C40.5051 123.454 40.3345 123.492 40.1422 123.525C39.95 123.555 39.7627 123.583 39.5804 123.609C39.3981 123.633 39.2457 123.652 39.123 123.669C38.8347 123.705 38.5712 123.767 38.3326 123.853C38.0972 123.939 37.9083 124.063 37.7658 124.226C37.6266 124.385 37.557 124.597 37.557 124.862C37.557 125.23 37.6929 125.509 37.9647 125.697C38.2364 125.883 38.5828 125.976 39.0037 125.976ZM44.429 127V119.364H45.8558V120.607H45.9503C46.1094 120.186 46.3696 119.857 46.7308 119.622C47.0921 119.384 47.5246 119.264 48.0284 119.264C48.5388 119.264 48.9664 119.384 49.3111 119.622C49.6591 119.861 49.916 120.189 50.0817 120.607H50.1612C50.3435 120.199 50.6335 119.874 51.0312 119.632C51.429 119.387 51.9029 119.264 52.4531 119.264C53.1458 119.264 53.7109 119.481 54.1484 119.915C54.5893 120.35 54.8097 121.004 54.8097 121.879V127H53.3232V122.018C53.3232 121.501 53.1823 121.127 52.9006 120.895C52.6188 120.663 52.2824 120.547 51.8913 120.547C51.4074 120.547 51.0312 120.696 50.7628 120.994C50.4943 121.289 50.3601 121.669 50.3601 122.133V127H48.8786V121.924C48.8786 121.51 48.7493 121.177 48.4908 120.925C48.2322 120.673 47.8958 120.547 47.4815 120.547C47.1998 120.547 46.9396 120.621 46.701 120.771C46.4657 120.916 46.2751 121.12 46.1293 121.382C45.9867 121.644 45.9155 121.947 45.9155 122.292V127H44.429ZM60.0932 127.154C59.3408 127.154 58.6929 126.993 58.1493 126.672C57.6091 126.347 57.1915 125.891 56.8965 125.305C56.6048 124.715 56.459 124.024 56.459 123.232C56.459 122.449 56.6048 121.76 56.8965 121.163C57.1915 120.567 57.6025 120.101 58.1294 119.766C58.6597 119.432 59.2795 119.264 59.9888 119.264C60.4197 119.264 60.8373 119.335 61.2417 119.478C61.646 119.621 62.0089 119.844 62.3304 120.149C62.6519 120.454 62.9055 120.85 63.0911 121.337C63.2767 121.821 63.3695 122.41 63.3695 123.102V123.629H57.2992V122.516H61.9128C61.9128 122.125 61.8333 121.778 61.6742 121.477C61.5151 121.172 61.2914 120.931 61.003 120.756C60.718 120.58 60.3832 120.492 59.9988 120.492C59.5811 120.492 59.2166 120.595 58.905 120.8C58.5968 121.003 58.3581 121.268 58.1891 121.596C58.0234 121.921 57.9405 122.274 57.9405 122.655V123.525C57.9405 124.035 58.03 124.469 58.209 124.827C58.3913 125.185 58.6448 125.459 58.9696 125.648C59.2944 125.833 59.6739 125.926 60.1081 125.926C60.3899 125.926 60.6467 125.886 60.8787 125.807C61.1107 125.724 61.3113 125.601 61.4803 125.439C61.6493 125.277 61.7786 125.076 61.8681 124.837L63.275 125.091C63.1623 125.505 62.9602 125.868 62.6685 126.18C62.3801 126.488 62.0172 126.728 61.5797 126.901C61.1455 127.07 60.65 127.154 60.0932 127.154Z" fill="#0F172A"/>
<rect x="24.5" y="137.5" width="247" height="39" rx="6.5" fill="white"/>
<rect x="24.5" y="137.5" width="247" height="39" rx="6.5" stroke="#CBD5E1"/>
<rect x="25" y="202" width="64" height="40" rx="6" fill="#0F172A"/>
<path d="M50.3366 216.818V227H48.9247L43.7493 219.533H43.6548V227H42.1186V216.818H43.5405L48.7209 224.295H48.8153V216.818H50.3366ZM55.7495 227.154C54.9971 227.154 54.3491 226.993 53.8056 226.672C53.2653 226.347 52.8477 225.891 52.5527 225.305C52.2611 224.715 52.1152 224.024 52.1152 223.232C52.1152 222.449 52.2611 221.76 52.5527 221.163C52.8477 220.567 53.2587 220.101 53.7857 219.766C54.316 219.432 54.9358 219.264 55.6451 219.264C56.0759 219.264 56.4935 219.335 56.8979 219.478C57.3023 219.621 57.6652 219.844 57.9867 220.149C58.3082 220.454 58.5617 220.85 58.7473 221.337C58.9329 221.821 59.0257 222.41 59.0257 223.102V223.629H52.9554V222.516H57.5691C57.5691 222.125 57.4895 221.778 57.3304 221.477C57.1713 221.172 56.9476 220.931 56.6593 220.756C56.3742 220.58 56.0395 220.492 55.655 220.492C55.2374 220.492 54.8728 220.595 54.5613 220.8C54.253 221.003 54.0144 221.268 53.8453 221.596C53.6796 221.921 53.5968 222.274 53.5968 222.655V223.525C53.5968 224.035 53.6863 224.469 53.8652 224.827C54.0475 225.185 54.3011 225.459 54.6259 225.648C54.9507 225.833 55.3302 225.926 55.7644 225.926C56.0461 225.926 56.303 225.886 56.535 225.807C56.767 225.724 56.9675 225.601 57.1365 225.439C57.3056 225.277 57.4348 225.076 57.5243 224.837L58.9313 225.091C58.8186 225.505 58.6164 225.868 58.3248 226.18C58.0364 226.488 57.6735 226.728 57.236 226.901C56.8018 227.07 56.3063 227.154 55.7495 227.154ZM61.6706 219.364L63.356 222.337L65.0563 219.364H66.682L64.3006 223.182L66.7019 227H65.0762L63.356 224.146L61.6408 227H60.0101L62.3865 223.182L60.04 219.364H61.6706ZM71.7729 219.364V220.557H67.6017V219.364H71.7729ZM68.7203 217.534H70.2069V224.758C70.2069 225.046 70.2499 225.263 70.3361 225.409C70.4223 225.552 70.5333 225.649 70.6692 225.702C70.8084 225.752 70.9592 225.777 71.1216 225.777C71.2409 225.777 71.3453 225.769 71.4348 225.752C71.5243 225.736 71.5939 225.722 71.6436 225.712L71.9121 226.94C71.8259 226.973 71.7033 227.007 71.5442 227.04C71.3851 227.076 71.1863 227.096 70.9476 227.099C70.5565 227.106 70.1919 227.036 69.8539 226.891C69.5158 226.745 69.2424 226.519 69.0336 226.214C68.8248 225.91 68.7203 225.527 68.7203 225.066V217.534Z" fill="white"/>
</svg>
